<svg width="82" height="28" viewBox="0 0 82 28" fill="none" xmlns="http://www.w3.org/2000/svg">
<path fill-rule="evenodd" clip-rule="evenodd" d="M16.1821 27.8957V15.9557H29.6854L31.1341 17.7239L32.6308 15.9557H81.6442V27.0723C81.6442 27.0723 80.3624 27.8838 78.88 27.8957H51.7402L50.1068 26.0135V27.8957H44.7543V24.6828C44.7543 24.6828 44.0231 25.1313 42.4424 25.1313H40.6205V27.8957H32.5163L31.0696 26.0896L29.6007 27.8957H16.1821ZM0.449219 6.9565L3.48735 0.310059H8.74147L10.4656 4.03312V0.310059H16.997L18.0234 3.00098L19.0185 0.310059H48.3375V1.66287C48.3375 1.66287 49.8788 0.310059 52.4118 0.310059L61.9247 0.341256L63.6191 4.0156V0.310059H69.0849L70.5892 2.42067V0.310059H76.1052V12.2501H70.5892L69.1476 10.1327V12.2501H61.1171L60.3096 10.3679H58.1507L57.3563 12.2501H51.9103C49.7308 12.2501 48.3375 10.9249 48.3375 10.9249V12.2501H40.1263L38.4966 10.3679V12.2501H7.9631L7.15608 10.3679H5.00411L4.2028 12.2501H0.449219V6.9565ZM0.464889 10.7224L4.56266 1.78201H7.66929L11.7631 10.7224H9.03652L8.28434 8.93209H3.88884L3.13275 10.7224H0.464889ZM7.41856 6.99109L6.07876 3.8627L4.73503 6.99109H7.41856ZM12.0452 10.7209V1.7805L15.8364 1.79372L18.0415 7.55789L20.1937 1.7805H23.9546V10.7209H21.5727V4.13323L19.0479 10.7209H16.959L14.4271 4.13323V10.7209H12.0452ZM25.5843 10.7209V1.7805H33.3567V3.78032H27.9912V5.30959H33.2314V7.19177H27.9912V8.77985H33.3567V10.7209H25.5843ZM34.7357 10.7224V1.78201H40.0362C41.7925 1.78201 43.3661 2.80112 43.3661 4.68248C43.3661 6.29078 42.0393 7.3267 40.7531 7.42855L43.8871 10.7224H40.9764L38.1205 7.54618H37.1176V10.7224H34.7357ZM39.8403 3.78182H37.1176V5.664H39.8756C40.353 5.664 40.9686 5.31687 40.9686 4.72291C40.9686 4.26124 40.4934 3.78182 39.8403 3.78182ZM46.7705 10.7209H44.3384V1.7805H46.7705V10.7209ZM52.5371 10.7209H52.0122C49.4722 10.7209 47.9301 8.8431 47.9301 6.28744C47.9301 3.66865 49.4549 1.7805 52.6625 1.7805H55.2951V3.89796H52.5662C51.2641 3.89796 50.3433 4.85148 50.3433 6.3095C50.3433 8.0409 51.3963 8.76809 52.9132 8.76809H53.54L52.5371 10.7209ZM53.6223 10.7224L57.7201 1.78201H60.8267L64.9205 10.7224H62.1939L61.4417 8.93209H57.0462L56.2901 10.7224H53.6223ZM60.576 6.99109L59.2362 3.8627L57.8924 6.99109H60.576ZM65.1987 10.7209V1.7805H68.227L72.0936 7.39763V1.7805H74.4755V10.7209H71.5451L67.5806 4.95668V10.7209H65.1987ZM17.8119 26.3665V17.4261H25.5843V19.4259H20.2188V20.9552H25.4589V22.8374H20.2188V24.4255H25.5843V26.3665H17.8119ZM55.8968 26.3665V17.4261H63.6693V19.4259H58.3038V20.9552H63.5188V22.8374H58.3038V24.4255H63.6693V26.3665H55.8968ZM25.8859 26.3665L29.6703 21.9514L25.7958 17.4261H28.7967L31.1041 20.2236L33.4194 17.4261H36.3027L32.4792 21.8963L36.2705 26.3665H33.2702L31.0297 23.613L28.8437 26.3665H25.8859ZM36.5535 26.368V17.4276H41.8148C43.9736 17.4276 45.2348 18.7333 45.2348 20.4347C45.2348 22.4886 43.6267 23.5447 41.5053 23.5447H38.998V26.368H36.5535ZM41.6385 19.4495H38.998V21.5081H41.6306C42.3263 21.5081 42.8137 21.0755 42.8137 20.4788C42.8137 19.8437 42.3238 19.4495 41.6385 19.4495ZM46.269 26.3665V17.4261H51.5695C53.3258 17.4261 54.8994 18.4452 54.8994 20.3266C54.8994 21.9349 53.5726 22.9708 52.2864 23.0726L55.4204 26.3665H52.5097L49.6538 23.1903H48.6509V26.3665H46.269ZM51.3736 19.4259H48.6509V21.3081H51.4089C51.8863 21.3081 52.5019 20.961 52.5019 20.367C52.5019 19.9053 52.0267 19.4259 51.3736 19.4259ZM64.7725 26.3665V24.4255H69.5393C70.2447 24.4255 70.5501 24.0678 70.5501 23.6755C70.5501 23.2997 70.2456 22.9197 69.5393 22.9197H67.3852C65.5128 22.9197 64.47 21.8492 64.47 20.242C64.47 18.8085 65.425 17.4261 68.2074 17.4261H72.8458L71.8429 19.4377H67.8313C67.0644 19.4377 66.8284 19.8153 66.8284 20.1759C66.8284 20.5465 67.1201 20.9552 67.7059 20.9552H69.9624C72.0497 20.9552 72.9555 22.0662 72.9555 23.5211C72.9555 25.0853 71.9462 26.3665 69.8488 26.3665H64.7725ZM73.1655 26.3665V24.4255H77.9323C78.6377 24.4255 78.9431 24.0678 78.9431 23.6755C78.9431 23.2997 78.6386 22.9197 77.9323 22.9197H75.7782C73.9058 22.9197 72.863 21.8492 72.863 20.242C72.863 18.8085 73.818 17.4261 76.6004 17.4261H81.2388L80.2359 19.4377H76.2243C75.4574 19.4377 75.2214 19.8153 75.2214 20.1759C75.2214 20.5465 75.5131 20.9552 76.0989 20.9552H78.3554C80.4427 20.9552 81.3485 22.0662 81.3485 23.5211C81.3485 25.0853 80.3392 26.3665 78.2418 26.3665H73.1655Z" fill="white"/>
</svg>
