<svg width="76" height="19" viewBox="0 0 76 19" fill="none" xmlns="http://www.w3.org/2000/svg">
<path fill-rule="evenodd" clip-rule="evenodd" d="M23.616 9.46737C23.616 13.0084 26.3932 15.754 29.9672 15.754C30.9773 15.754 31.843 15.5552 32.9099 15.0521V12.286C31.9717 13.2262 31.1405 13.6055 30.0764 13.6055C27.7125 13.6055 26.0348 11.8895 26.0348 9.44968C26.0348 7.13695 27.7655 5.31245 29.9672 5.31245C31.0866 5.31245 31.9341 5.71226 32.9099 6.66779V3.90312C31.8797 3.37998 31.0327 3.16309 30.0225 3.16309C26.4666 3.16309 23.616 5.96452 23.616 9.46737ZM17.5927 6.54152C17.5927 7.19266 18.006 7.53661 19.4146 8.05836C22.0844 9.03623 22.8756 9.9024 22.8756 11.8167C22.8756 14.1485 21.1644 15.7724 18.7257 15.7724C16.9396 15.7724 15.6407 15.0682 14.5594 13.4788L16.0759 12.0169C16.616 13.0632 17.5179 13.624 18.6373 13.624C19.6847 13.624 20.4597 12.9007 20.4597 11.9247C20.4597 11.4188 20.2249 10.9845 19.7558 10.6778C19.5201 10.5326 19.0525 10.3166 18.1334 9.99176C15.9289 9.19774 15.1731 8.34786 15.1731 6.68813C15.1731 4.71656 16.7969 3.23648 18.926 3.23648C20.2453 3.23648 21.4526 3.68795 22.4619 4.57181L21.2337 6.18174C20.6224 5.49569 20.0441 5.20619 19.3412 5.20619C18.3296 5.20619 17.5927 5.78286 17.5927 6.54152ZM11.3283 15.4827H13.6755V3.43551H11.3283V15.4827ZM6.53082 12.4854C5.79352 13.1524 4.83541 13.4433 3.31897 13.4433H2.68906V5.47647H3.31897C4.83541 5.47647 5.75587 5.74829 6.53082 6.45109C7.3425 7.17437 7.83062 8.29606 7.83062 9.44987C7.83062 10.6065 7.3425 11.7621 6.53082 12.4854ZM3.78897 3.43555H0.34375V15.4823H3.77084C5.59316 15.4823 6.90877 15.0523 8.06399 14.0916C9.43678 12.9546 10.2485 11.2404 10.2485 9.46755C10.2485 5.91212 7.59539 3.43555 3.78897 3.43555ZM48.311 3.43551L51.5196 11.5275L54.7701 3.43551H57.3144L52.1161 15.7918H50.853L45.7468 3.43551H48.311ZM58.3757 15.4825H65.0318V13.443H60.721V10.191H64.8733V8.15056H60.721V5.47666H65.0318V3.43527H58.3757V15.4825ZM68.9306 8.98169H69.6163C71.1155 8.98169 71.91 8.32962 71.91 7.11856C71.91 5.94614 71.1155 5.33317 69.6535 5.33317H68.9306V8.98169ZM70.0668 3.43513C72.7733 3.43513 74.3251 4.73648 74.3251 6.99196C74.3251 8.83647 73.3516 10.0475 71.5837 10.4073L75.372 15.4824H72.4855L69.237 10.6428H68.9306V15.4824H66.5862V3.43513H70.0668Z" fill="#1D1D1B"/>
<path fill-rule="evenodd" clip-rule="evenodd" d="M45.4693 12.9541C47.3744 9.97172 46.5043 6.00973 43.5259 4.1027C40.5475 2.19566 36.5894 3.06625 34.6844 6.0486C32.7799 9.03016 33.6502 12.9934 36.6286 14.9005C39.6071 16.8075 43.5648 15.9356 45.4693 12.9541Z" fill="url(#paint0_linear_8517_221871)"/>
<defs>
<linearGradient id="paint0_linear_8517_221871" x1="48.918" y1="7.55518" x2="38.1256" y2="0.661369" gradientUnits="userSpaceOnUse">
<stop stop-color="#F6A000"/>
<stop offset="0.623918" stop-color="#E47E02"/>
<stop offset="1" stop-color="#D36002"/>
</linearGradient>
</defs>
</svg>
