<svg width="56" height="35" viewBox="0 0 56 35" fill="none" xmlns="http://www.w3.org/2000/svg">
<path d="M35.6905 31.0159H20.6992V4.24268H35.6905V31.0159Z" fill="#FF5F00"/>
<path d="M21.6614 17.6271C21.6614 12.1961 24.2203 7.35823 28.2052 4.24053C25.2912 1.96072 21.6135 0.599976 17.6167 0.599976C8.15452 0.599976 0.484375 8.22317 0.484375 17.6271C0.484375 27.0311 8.15452 34.6543 17.6167 34.6543C21.6135 34.6543 25.2912 33.2936 28.2052 31.0137C24.2203 27.896 21.6614 23.0582 21.6614 17.6271Z" fill="#EB001B"/>
<path d="M55.9094 17.6271C55.9094 27.0311 48.2393 34.6543 38.7771 34.6543C34.7803 34.6543 31.1026 33.2936 28.1875 31.0137C32.1734 27.896 34.7323 23.0582 34.7323 17.6271C34.7323 12.1961 32.1734 7.35823 28.1875 4.24053C31.1026 1.96072 34.7803 0.599976 38.7771 0.599976C48.2393 0.599976 55.9094 8.22317 55.9094 17.6271Z" fill="#F79E1B"/>
</svg>
