<svg width="62" height="43" viewBox="0 0 62 43" fill="none" xmlns="http://www.w3.org/2000/svg">
<path fill-rule="evenodd" clip-rule="evenodd" d="M27.2921 21.3714L27.6578 19.0392L26.8431 19.0201H22.9531L25.6566 1.8093C25.665 1.75719 25.6922 1.70881 25.732 1.67439C25.7719 1.63997 25.8228 1.62109 25.8761 1.62109H32.4353C34.613 1.62109 36.1157 2.07598 36.9002 2.97396C37.268 3.39522 37.5023 3.83555 37.6157 4.31994C37.7346 4.82832 37.7366 5.43562 37.6206 6.17646L37.6122 6.23035V6.7051L37.98 6.91435C38.2897 7.07935 38.5359 7.26815 38.7247 7.48429C39.0393 7.84458 39.2428 8.30242 39.3288 8.84502C39.4177 9.40316 39.3884 10.0675 39.2428 10.8195C39.075 11.6845 38.8037 12.4379 38.4372 13.0543C38.1003 13.6222 37.671 14.0934 37.1611 14.4584C36.6744 14.8054 36.0961 15.0687 35.4423 15.2372C34.8087 15.4028 34.0863 15.4864 33.294 15.4864H32.7836C32.4186 15.4864 32.0641 15.6184 31.7858 15.855C31.5067 16.0965 31.3222 16.4265 31.2655 16.7874L31.227 16.9974L30.5808 21.1083L30.5516 21.2591C30.5438 21.3069 30.5304 21.3307 30.5109 21.3469C30.4934 21.3616 30.4683 21.3714 30.4439 21.3714H27.2921Z" fill="#28356A"/>
<path fill-rule="evenodd" clip-rule="evenodd" d="M38.3286 6.28516C38.3092 6.41083 38.2867 6.53925 38.2616 6.67121C37.3966 11.1304 34.4372 12.6709 30.6576 12.6709H28.7332C28.2709 12.6709 27.8814 13.0078 27.8095 13.4656L26.5451 21.5181C26.4983 21.8188 26.729 22.0896 27.0311 22.0896H30.4443C30.8484 22.0896 31.1918 21.7948 31.2554 21.3946L31.2889 21.2205L31.9316 17.1258L31.9729 16.9012C32.0358 16.4996 32.38 16.2046 32.784 16.2046H33.2945C36.6014 16.2046 39.1902 14.8566 39.9469 10.9556C40.2628 9.326 40.0993 7.96527 39.2629 7.0083C39.0098 6.71979 38.6958 6.48025 38.3286 6.28516Z" fill="#298FC2"/>
<path fill-rule="evenodd" clip-rule="evenodd" d="M37.423 5.92304C37.2908 5.8843 37.1544 5.84929 37.0146 5.81763C36.8739 5.78675 36.73 5.75942 36.5817 5.73542C36.0628 5.65125 35.4942 5.61133 34.8853 5.61133H29.7442C29.6175 5.61133 29.4972 5.64004 29.3897 5.69196C29.1525 5.80642 28.9764 6.0318 28.9337 6.30772L27.8399 13.263L27.8086 13.4658C27.8805 13.0079 28.2701 12.671 28.7323 12.671H30.6568C34.4363 12.671 37.3957 11.1298 38.2607 6.67136C38.2866 6.53939 38.3083 6.41097 38.3277 6.2853C38.1089 6.16868 37.8719 6.06897 37.6167 5.98401C37.5536 5.96297 37.4886 5.94271 37.423 5.92304Z" fill="#22284F"/>
<path fill-rule="evenodd" clip-rule="evenodd" d="M28.9338 6.30741C28.9765 6.03149 29.1526 5.80611 29.3898 5.69243C29.4981 5.64032 29.6176 5.61161 29.7443 5.61161H34.8854C35.4943 5.61161 36.063 5.65172 36.5818 5.7359C36.7301 5.75969 36.8741 5.78723 37.0147 5.8181C37.1546 5.84957 37.2909 5.88477 37.4231 5.92332C37.4887 5.94299 37.5537 5.96344 37.6174 5.9837C37.8726 6.06866 38.1098 6.16915 38.3286 6.28499C38.586 4.63713 38.3265 3.51515 37.4392 2.49917C36.4608 1.38054 34.6952 0.901855 32.4358 0.901855H25.8764C25.415 0.901855 25.0213 1.23874 24.95 1.69737L22.2179 19.0852C22.1641 19.4291 22.4283 19.7395 22.7738 19.7395H26.8233L28.9338 6.30741Z" fill="#28356A"/>
<path fill-rule="evenodd" clip-rule="evenodd" d="M7.96435 26.105H3.18194C2.85463 26.105 2.5763 26.3437 2.52518 26.6682L0.59094 38.9811C0.552549 39.2242 0.739999 39.443 0.985427 39.443H3.26851C3.59581 39.443 3.87415 39.2045 3.92527 38.8794L4.44688 35.5583C4.49722 35.2332 4.77614 34.9945 5.10286 34.9945H6.61675C9.76696 34.9945 11.585 33.4638 12.06 30.4308C12.2739 29.1037 12.069 28.0612 11.4501 27.331C10.7704 26.5292 9.56482 26.105 7.96435 26.105ZM8.5158 30.6021C8.25431 32.3251 6.94315 32.3251 5.67546 32.3251H4.95367L5.46 29.1073C5.49017 28.9128 5.65783 28.7696 5.8537 28.7696H6.18453C7.04813 28.7696 7.86276 28.7696 8.28369 29.2638C8.5348 29.5586 8.61158 29.9968 8.5158 30.6021Z" fill="#28356A"/>
<path fill-rule="evenodd" clip-rule="evenodd" d="M22.3826 30.4536H20.0925C19.8974 30.4536 19.7288 30.5968 19.6988 30.7913L19.5973 31.4344L19.4373 31.2014C18.9415 30.4788 17.8359 30.2373 16.7325 30.2373C14.2016 30.2373 12.0402 32.1619 11.6193 34.8615C11.4005 36.2081 11.7115 37.4958 12.4725 38.3938C13.1704 39.2194 14.1689 39.5636 15.3569 39.5636C17.3961 39.5636 18.5267 38.2471 18.5267 38.2471L18.4246 38.8861C18.3863 39.1303 18.5737 39.3494 18.8178 39.3494H20.8805C21.2086 39.3494 21.4855 39.1107 21.5372 38.7856L22.775 30.9156C22.8141 30.6733 22.6273 30.4536 22.3826 30.4536ZM19.1903 34.929C18.9693 36.2425 17.931 37.1243 16.6065 37.1243C15.9416 37.1243 15.4101 36.9102 15.0687 36.5045C14.7303 36.1015 14.6018 35.5278 14.7093 34.8888C14.9158 33.5865 15.9715 32.6758 17.2758 32.6758C17.9261 32.6758 18.4548 32.8929 18.803 33.3019C19.1519 33.7155 19.2904 34.2927 19.1903 34.929Z" fill="#28356A"/>
<path fill-rule="evenodd" clip-rule="evenodd" d="M34.4046 30.6509H32.1031C31.8835 30.6509 31.6772 30.7604 31.5529 30.9437L28.3787 35.6379L27.0333 31.1268C26.9487 30.8446 26.6894 30.6509 26.3955 30.6509H24.1342C23.8592 30.6509 23.6684 30.9205 23.7558 31.1803L26.2908 38.6493L23.9076 42.0272C23.7201 42.2933 23.9089 42.6591 24.2327 42.6591H26.5313C26.7495 42.6591 26.9536 42.5523 27.0774 42.3727L34.7317 31.2792C34.915 31.0139 34.7268 30.6509 34.4046 30.6509Z" fill="#28356A"/>
<path fill-rule="evenodd" clip-rule="evenodd" d="M42.0735 26.105H37.2905C36.964 26.105 36.6857 26.3437 36.6346 26.6682L34.7003 38.9811C34.6619 39.2242 34.8494 39.443 35.0934 39.443H37.5479C37.7757 39.443 37.9708 39.2761 38.0064 39.0485L38.5555 35.5583C38.6058 35.2332 38.8849 34.9945 39.2114 34.9945H40.7248C43.8756 34.9945 45.6931 33.4638 46.1686 30.4308C46.3833 29.1037 46.1771 28.0612 45.5581 27.331C44.879 26.5292 43.6742 26.105 42.0735 26.105ZM42.6254 30.6021C42.3645 32.3251 41.0533 32.3251 39.7848 32.3251H39.064L39.5709 29.1073C39.6009 28.9128 39.7674 28.7696 39.9639 28.7696H40.2947C41.1575 28.7696 41.9729 28.7696 42.3939 29.2638C42.645 29.5586 42.7212 29.9968 42.6254 30.6021Z" fill="#298FC2"/>
<path fill-rule="evenodd" clip-rule="evenodd" d="M56.4889 30.4536H54.2002C54.0037 30.4536 53.8366 30.5968 53.8072 30.7913L53.7058 31.4344L53.545 31.2014C53.0492 30.4788 51.9443 30.2373 50.8408 30.2373C48.3101 30.2373 46.1494 32.1619 45.7285 34.8615C45.5103 36.2081 45.82 37.4958 46.5807 38.3938C47.2802 39.2194 48.2772 39.5636 49.4653 39.5636C51.5044 39.5636 52.6351 38.2471 52.6351 38.2471L52.5331 38.8861C52.4947 39.1303 52.682 39.3494 52.9276 39.3494H54.9897C55.3162 39.3494 55.5946 39.1107 55.6457 38.7856L56.884 30.9156C56.9218 30.6733 56.7344 30.4536 56.4889 30.4536ZM53.2967 34.929C53.0771 36.2425 52.0372 37.1243 50.7127 37.1243C50.0491 37.1243 49.5163 36.9102 49.1749 36.5045C48.8367 36.1015 48.7093 35.5278 48.8155 34.8888C49.0233 33.5865 50.0777 32.6758 51.382 32.6758C52.0323 32.6758 52.561 32.8929 52.9092 33.3019C53.2595 33.7155 53.3979 34.2927 53.2967 34.929Z" fill="#298FC2"/>
<path fill-rule="evenodd" clip-rule="evenodd" d="M58.9991 26.4434L57.0363 38.9817C56.9979 39.2247 57.1851 39.4436 57.4292 39.4436H59.4026C59.7307 39.4436 60.0088 39.2051 60.0592 38.88L61.9948 26.5677C62.0334 26.3247 61.8459 26.105 61.6018 26.105H59.3922C59.1971 26.1056 59.0293 26.2489 58.9991 26.4434Z" fill="#298FC2"/>
</svg>
