<svg id='img' width="58" height="26" viewBox="0 0 58 26" fill="none" xmlns="http://www.w3.org/2000/svg">
<path fill-rule="evenodd" clip-rule="evenodd" d="M31.3982 3.73587L27.3591 4.62327V1.27087L31.3982 0.399902V3.73587ZM39.7982 5.59283C38.2212 5.59283 37.2074 6.34877 36.6442 6.87463L36.435 5.85577H32.8947V25.017L36.9177 24.1461L36.9338 19.4954C37.5131 19.9227 38.366 20.5307 39.7821 20.5307C42.6626 20.5307 45.2855 18.1643 45.2855 12.955C45.2695 8.1893 42.6143 5.59283 39.7982 5.59283ZM38.8325 16.9154C37.8831 16.9154 37.3198 16.5703 36.9336 16.143L36.9175 10.0463C37.3359 9.5697 37.9152 9.24104 38.8325 9.24104C40.2968 9.24104 41.3106 10.9172 41.3106 13.07C41.3106 15.2721 40.3129 16.9154 38.8325 16.9154ZM57.9661 13.1193C57.9661 8.91237 55.9707 5.59283 52.1569 5.59283C48.327 5.59283 46.0097 8.91237 46.0097 13.0864C46.0097 18.0329 48.7454 20.5307 52.6718 20.5307C54.5868 20.5307 56.035 20.087 57.1293 19.4626V16.1759C56.035 16.7346 54.7799 17.0797 53.1868 17.0797C51.6258 17.0797 50.2419 16.521 50.0649 14.5819H57.9339C57.9339 14.4913 57.9397 14.2855 57.9463 14.0485V14.0484L57.9463 14.0481V14.0481V14.048L57.9463 14.0478C57.9554 13.7258 57.9661 13.3463 57.9661 13.1193ZM50.0166 11.5581C50.0166 9.70117 51.1269 8.9288 52.1407 8.9288C53.1223 8.9288 54.1683 9.70117 54.1683 11.5581H50.0166ZM27.3591 5.8722H31.3982V20.2514H27.3591V5.8722ZM22.773 5.8722L23.0305 7.08827C23.9799 5.31347 25.8627 5.675 26.3776 5.8722V9.65187C25.8788 9.4711 24.2696 9.24103 23.3201 10.5064V20.2514H19.2971V5.8722H22.773ZM14.9844 2.30617L11.058 3.1607L11.0419 16.3238C11.0419 18.7559 12.8281 20.5472 15.2097 20.5472C16.5292 20.5472 17.4948 20.3007 18.0258 20.0049V16.6689C17.5108 16.8825 14.9683 17.6385 14.9683 15.2063V9.3725H18.0258V5.8722H14.9683L14.9844 2.30617ZM5.47424 9.15887C4.62136 9.15887 4.10642 9.40537 4.10642 10.0463C4.10642 10.746 4.99264 11.0538 6.0921 11.4357C7.88448 12.0583 10.2436 12.8777 10.2535 15.913C10.2535 18.8545 7.9524 20.5472 4.60527 20.5472C3.22136 20.5472 1.70872 20.2678 0.212168 19.6105V15.6993C1.56389 16.4553 3.26964 17.014 4.60527 17.014C5.50642 17.014 6.1501 16.7675 6.1501 16.0116C6.1501 15.2365 5.18941 14.8822 4.02961 14.4544C2.2633 13.803 0.0351562 12.9813 0.0351562 10.2435C0.0351562 7.33477 2.20757 5.59283 5.47424 5.59283C6.80987 5.59283 8.12941 5.80647 9.46504 6.34877V10.2106C8.24205 9.53683 6.69723 9.15887 5.47424 9.15887Z" fill="#6772E5"/>
</svg>
