<svg width="70" height="22" viewBox="0 0 70 22" fill="none" xmlns="http://www.w3.org/2000/svg">
<path d="M30.2956 20.7781H24.7031L28.2011 0.477051H33.7933L30.2956 20.7781Z" fill="#15195A"/>
<path d="M50.5689 0.97367C49.4658 0.562907 47.7163 0.109375 45.5529 0.109375C40.0301 0.109375 36.141 2.87363 36.1172 6.82567C36.0713 9.74148 38.9017 11.361 41.0185 12.3332C43.1822 13.3267 43.9177 13.9751 43.9177 14.8607C43.8957 16.2207 42.1693 16.8476 40.5592 16.8476C38.3264 16.8476 37.1301 16.5244 35.312 15.7677L34.5756 15.4434L33.793 20.0005C35.1046 20.5614 37.5212 21.0591 40.0301 21.0809C45.8982 21.0809 49.7184 18.3595 49.7637 14.1479C49.786 11.8369 48.2915 10.0661 45.0694 8.61914C43.1134 7.69026 41.9155 7.06392 41.9155 6.11351C41.9384 5.2495 42.9287 4.36454 45.1367 4.36454C46.9548 4.3212 48.2906 4.73139 49.3025 5.14186L49.8084 5.35743L50.5689 0.97367Z" fill="#15195A"/>
<path fill-rule="evenodd" clip-rule="evenodd" d="M60.5776 0.477051H64.9034L69.4151 20.7778H64.237C64.237 20.7778 63.7303 18.4453 63.5697 17.7325H56.3894C56.1818 18.2722 55.2157 20.7778 55.2157 20.7778H49.3477L57.6546 2.16144C58.2301 0.843895 59.2436 0.477051 60.5776 0.477051ZM60.2331 7.90608C60.2331 7.90608 58.4608 12.4199 58.0003 13.5861H62.6487C62.4187 12.5711 61.3597 7.71175 61.3597 7.71175L60.9689 5.9625C60.8043 6.41294 60.5663 7.03224 60.4057 7.44994C60.2969 7.73308 60.2237 7.92359 60.2331 7.90608Z" fill="#15195A"/>
<path fill-rule="evenodd" clip-rule="evenodd" d="M0.470957 0.477051H9.46874C10.6883 0.519821 11.678 0.886952 12 2.18354L13.9553 11.5101C13.9555 11.511 13.9558 11.5119 13.9561 11.5128L14.5546 14.3204L20.0315 0.477051H25.9451L17.1547 20.7565H11.2408L6.25617 3.11681C4.53632 2.17303 2.57348 1.41398 0.378906 0.887239L0.470957 0.477051Z" fill="#15195A"/>
</svg>
